<svg id="Arduino_Uno" data-name="Arduino Uno" xmlns="http://www.w3.org/2000/svg" viewBox="0 0 803.85 554.51"><defs><style>.cls-1{fill:none;stroke:#000;stroke-miterlimit:10;}.cls-2{font-size:9.27px;}.cls-10,.cls-13,.cls-14,.cls-15,.cls-2{font-family:MyriadPro-Regular, Myriad Pro;}.cls-3{letter-spacing:0em;}.cls-4{letter-spacing:-0.02em;}.cls-5{letter-spacing:0em;}.cls-6{letter-spacing:0.01em;}.cls-7{letter-spacing:-0.01em;}.cls-8{letter-spacing:0em;}.cls-9{letter-spacing:0em;}.cls-10{font-size:15.03px;}.cls-11{letter-spacing:0em;}.cls-12{letter-spacing:-0.01em;}.cls-13{font-size:21px;}.cls-14{font-size:10.34px;}.cls-15{font-size:15.24px;}.cls-16{letter-spacing:0em;}.cls-17{letter-spacing:0em;}</style></defs><line class="cls-1" x1="421.3" y1="195.41" x2="430.17" y2="204.27"/><line class="cls-1" x1="444.62" y1="285.06" x2="429.83" y2="270.27"/><line class="cls-1" x1="444.58" y1="285.06" x2="444.58" y2="479.43"/><line class="cls-1" x1="429.83" y1="493.19" x2="444.09" y2="478.94"/><line class="cls-1" x1="429.83" y1="270.27" x2="429.83" y2="204.27"/><line class="cls-1" x1="421.3" y1="195.41" x2="49.09" y2="195.41"/><line class="cls-1" x1="429.83" y1="493.19" x2="429.83" y2="503.6"/><line class="cls-1" x1="47.19" y1="503.6" x2="429.83" y2="503.6"/><line class="cls-1" x1="49.09" y1="195.41" x2="49.09" y2="244.92"/><line class="cls-1" x1="47.19" y1="316.86" x2="47.19" y2="432.14"/><line class="cls-1" x1="47.19" y1="484.07" x2="47.19" y2="503.6"/><rect class="cls-1" x="0.5" y="244.92" width="80.03" height="71.94"/><rect class="cls-1" x="33.85" y="432.14" width="78.13" height="50.02"/><circle class="cls-1" cx="137.87" cy="209.21" r="9.36"/><circle class="cls-1" cx="432.64" cy="459.86" r="9.36"/><circle class="cls-1" cx="432.64" cy="296.67" r="9.36"/><circle class="cls-1" cx="177.66" cy="204.27" r="2.62"/><circle class="cls-1" cx="237.82" cy="488.68" r="2.62"/><circle class="cls-1" cx="252.57" cy="488.68" r="2.62"/><circle class="cls-1" cx="267.35" cy="488.68" r="2.62"/><circle class="cls-1" cx="282.56" cy="488.68" r="2.62"/><circle class="cls-1" cx="297.36" cy="488.68" r="2.62"/><circle class="cls-1" cx="312.3" cy="488.68" r="2.62"/><circle class="cls-1" cx="342.84" cy="488.68" r="2.62"/><circle class="cls-1" cx="357.5" cy="488.68" r="2.62"/><circle class="cls-1" cx="372.38" cy="488.68" r="2.62"/><circle class="cls-1" cx="387.65" cy="488.68" r="2.62"/><circle class="cls-1" cx="402.42" cy="488.68" r="2.62"/><circle class="cls-1" cx="417.44" cy="488.68" r="2.62"/><circle class="cls-1" cx="192.49" cy="204.27" r="2.62"/><circle class="cls-1" cx="207.57" cy="204.27" r="2.62"/><circle class="cls-1" cx="222.49" cy="204.27" r="2.62"/><circle class="cls-1" cx="237.82" cy="204.27" r="2.62"/><circle class="cls-1" cx="252.49" cy="204.27" r="2.62"/><circle class="cls-1" cx="267.61" cy="204.27" r="2.62"/><circle class="cls-1" cx="282.43" cy="204.27" r="2.62"/><circle class="cls-1" cx="327.64" cy="204.27" r="2.62"/><circle class="cls-1" cx="342.44" cy="204.27" r="2.62"/><circle class="cls-1" cx="357.56" cy="204.27" r="2.62"/><circle class="cls-1" cx="372.68" cy="204.27" r="2.62"/><circle class="cls-1" cx="387.45" cy="204.27" r="2.62"/><circle class="cls-1" cx="402.57" cy="204.27" r="2.62"/><circle class="cls-1" cx="417.51" cy="204.27" r="2.62"/><circle class="cls-1" cx="312.91" cy="204.27" r="2.62"/><text class="cls-2" transform="translate(180.05 232.87) rotate(-90)">AREF</text><text class="cls-2" transform="translate(240.44 482.17) rotate(-90)"><tspan class="cls-3">R</tspan><tspan x="5.02" y="0">es</tspan></text><text class="cls-2" transform="translate(254.14 482.17) rotate(-90)">3.3V</text><text class="cls-2" transform="translate(269.11 482.17) rotate(-90)">5V</text><text class="cls-2" transform="translate(314.92 482.17) rotate(-90)"><tspan class="cls-4">V</tspan><tspan x="5.02" y="0">in</tspan></text><text class="cls-2" transform="translate(354.88 458.28)"><tspan class="cls-5">A</tspan><tspan x="5.65" y="0">nalog </tspan><tspan class="cls-6" x="29.68" y="0">I</tspan><tspan x="31.99" y="0">n</tspan></text><text class="cls-2" transform="translate(339.23 480.04)">0</text><text class="cls-2" transform="translate(354.17 480.04)">1</text><text class="cls-2" transform="translate(368.98 480.04)">2</text><text class="cls-2" transform="translate(384.16 480.04)">3</text><text class="cls-2" transform="translate(399.8 480.04)">4</text><text class="cls-2" transform="translate(414.25 480.04)">5</text><text class="cls-2" transform="translate(279.94 475.01)">GND</text><text class="cls-2" transform="translate(264.92 278.79)">Di<tspan class="cls-7" x="8.34" y="0">g</tspan><tspan x="13.47" y="0">ital </tspan><tspan class="cls-6" x="27.32" y="0">I</tspan><tspan x="29.63" y="0">n/</tspan><tspan class="cls-8" x="37.96" y="0">O</tspan><tspan class="cls-9" x="44.37" y="0">ut</tspan></text><text class="cls-10" transform="translate(227.41 351.62)"><tspan class="cls-11">A</tspan><tspan class="cls-12" x="9.15" y="0">r</tspan><tspan x="13.92" y="0">duino Uno</tspan></text><text class="cls-2" transform="translate(194.89 231.39) rotate(-90)">GND</text><text class="cls-2" transform="translate(209.96 222.64) rotate(-90)">13</text><text class="cls-2" transform="translate(224.88 222.64) rotate(-90)">12</text><text class="cls-2" transform="translate(240.21 222.64) rotate(-90)">11</text><text class="cls-2" transform="translate(254.88 222.64) rotate(-90)">10</text><text class="cls-2" transform="translate(270 217.89) rotate(-90)">9</text><text class="cls-2" transform="translate(284.82 217.89) rotate(-90)">8</text><text class="cls-2" transform="translate(315.3 217.89) rotate(-90)">7</text><text class="cls-2" transform="translate(330.04 217.89) rotate(-90)">6</text><text class="cls-2" transform="translate(344.84 217.89) rotate(-90)">5</text><text class="cls-2" transform="translate(359.95 217.89) rotate(-90)">4</text><text class="cls-2" transform="translate(375.08 217.89) rotate(-90)">3</text><text class="cls-2" transform="translate(389.84 217.89) rotate(-90)">2</text><text class="cls-2" transform="translate(404.96 217.89) rotate(-90)">1</text><text class="cls-2" transform="translate(419.9 217.89) rotate(-90)">0</text><rect class="cls-1" x="6995.05" y="7025.38" width="60.77" height="18.01" transform="translate(-6508.95 7312.75) rotate(-90)"/><polygon class="cls-1" points="350.77 49.95 350.77 40.94 358.57 45.44 366.37 49.95 358.57 54.45 350.77 58.95 350.77 49.95"/><line class="cls-1" x1="366.88" y1="58.95" x2="366.88" y2="40.94"/><line class="cls-1" x1="359.1" y1="39.88" x2="368.05" y2="30.92"/><polygon points="369.58 29.4 368.66 32.08 367.75 34.75 365.98 32.99 364.22 31.23 366.9 30.31 369.58 29.4"/><line class="cls-1" x1="354.82" y1="35.4" x2="363.77" y2="26.45"/><polygon points="365.3 24.92 364.38 27.6 363.46 30.28 361.7 28.52 359.94 26.75 362.62 25.84 365.3 24.92"/><line class="cls-1" x1="327.64" y1="204.27" x2="327.64" y2="49.95"/><line class="cls-1" x1="350.77" y1="49.95" x2="327.64" y2="49.95"/><line class="cls-1" x1="524.93" y1="256.92" x2="524.93" y2="49.95"/><line class="cls-1" x1="366.37" y1="49.95" x2="524.93" y2="49.95"/><line class="cls-1" x1="297.36" y1="488.68" x2="297.36" y2="512.93"/><line class="cls-1" x1="525.43" y1="317.69" x2="525.43" y2="512.93"/><line class="cls-1" x1="297.36" y1="512.93" x2="525.43" y2="512.93"/><text class="cls-13" transform="translate(481.04 315.17)">R0</text><text class="cls-14" transform="translate(527.99 293.95) rotate(-90)">1K</text><rect class="cls-1" x="627.19" y="108.36" width="60.77" height="18.01"/><text class="cls-13" transform="translate(629.93 91.67)">R1</text><text class="cls-14" transform="translate(629.17 299.81)">10μF</text><rect class="cls-1" x="7188.85" y="7024.54" width="60.77" height="18.01" transform="translate(-6314.32 7505.7) rotate(-90)"/><text class="cls-13" transform="translate(629.05 272.21)">C1</text><text class="cls-14" transform="translate(721.78 293.12) rotate(-90)">1K</text><text class="cls-15" transform="translate(331.59 12.76)"><tspan class="cls-16">S</tspan><tspan x="7.47" y="0">t</tspan><tspan class="cls-17" x="12.51" y="0">a</tspan><tspan x="19.8" y="0">tus LED</tspan></text><line class="cls-1" x1="342.44" y1="204.27" x2="342.44" y2="117.36"/><path class="cls-1" d="M7127.2,6864.43h-97.53a4.46,4.46,0,0,0-8.91,0H6842.45" transform="translate(-6500.01 -6747.07)"/><line class="cls-1" x1="598.37" y1="279.07" x2="628.1" y2="279.07"/><line class="cls-1" x1="598.37" y1="291.05" x2="628.1" y2="291.05"/><line class="cls-1" x1="613.23" y1="117.36" x2="613.23" y2="279.07"/><line class="cls-1" x1="613.23" y1="291.05" x2="613.23" y2="512.93"/><line class="cls-1" x1="525.43" y1="512.93" x2="613.23" y2="512.93"/><line class="cls-1" x1="267.35" y1="488.68" x2="267.35" y2="554.01"/><line class="cls-1" x1="687.96" y1="117.36" x2="735.64" y2="117.36"/><line class="cls-1" x1="719.22" y1="117.36" x2="719.22" y2="256.92"/><line class="cls-1" x1="719.22" y1="317.69" x2="719.22" y2="512.93"/><line class="cls-1" x1="613.23" y1="512.93" x2="719.22" y2="512.93"/><line class="cls-1" x1="267.35" y1="554.01" x2="776.26" y2="554.01"/><line class="cls-1" x1="735.64" y1="117.36" x2="776.26" y2="117.36"/><line class="cls-1" x1="776.26" y1="554.01" x2="776.26" y2="306.04"/><circle class="cls-1" cx="776.26" cy="306.04" r="3.77"/><circle class="cls-1" cx="799.58" cy="283.05" r="3.77"/><circle class="cls-1" cx="776.26" cy="283.05" r="3.77"/><line class="cls-1" x1="776.26" y1="306.04" x2="799.4" y2="282.89"/><line class="cls-1" x1="776.26" y1="117.36" x2="776.26" y2="283.05"/></svg>